<?xml version="1.0" encoding="UTF-8" standalone="no"?>
<!-- Created with Inkscape (http://www.inkscape.org/) -->

<svg
   width="64.491379mm"
   height="64.491379mm"
   viewBox="0 0 64.491379 64.491379"
   version="1.1"
   id="svg1"
   xml:space="preserve"
   xmlns="http://www.w3.org/2000/svg"
   xmlns:svg="http://www.w3.org/2000/svg">
  <defs id="defs1" />
  <path
     id="path1"
     style="baseline-shift:baseline;display:inline;overflow:visible;opacity:1;vector-effect:none;fill:#000000;fill-opacity:1;fill-rule:evenodd;stroke:none;stroke-linejoin:round;stroke-opacity:1;paint-order:stroke fill markers;enable-background:accumulate;stop-color:#000000;stop-opacity:1"
     d="m 88.667942,174.1191 a 0.13230472,0.13230472 0 0 0 -0.132809,0.13281 v 12.14448 a 0.13230472,0.13230472 0 0 0 0.132809,0.13281 h 12.144478 a 0.13230472,0.13230472 0 0 0 0.13074,-0.13281 v -12.14448 a 0.13230472,0.13230472 0 0 0 -0.13074,-0.13281 z m 26.529128,0 a 0.13230472,0.13230472 0 0 0 -0.13281,0.13281 v 12.14448 a 0.13230472,0.13230472 0 0 0 0.13281,0.13281 h 12.14448 a 0.13230472,0.13230472 0 0 0 0.13126,-0.13281 v -12.14448 a 0.13230472,0.13230472 0 0 0 -0.13126,-0.13281 z m -13.26534,13.42606 a 0.13230472,0.13230472 0 0 0 -0.13074,0.13281 v 12.14447 a 0.13230472,0.13230472 0 0 0 0.13074,0.13281 h 12.14448 a 0.13230472,0.13230472 0 0 0 0.13281,-0.13281 v -12.14447 a 0.13230472,0.13230472 0 0 0 -0.13281,-0.13281 z m 13.26534,0 a 0.13230472,0.13230472 0 0 0 -0.13281,0.13281 v 12.14447 a 0.13230472,0.13230472 0 0 0 0.13281,0.13281 h 12.14448 a 0.13230472,0.13230472 0 0 0 0.13126,-0.13281 v -12.14447 a 0.13230472,0.13230472 0 0 0 -0.13126,-0.13281 z m -26.529128,13.42553 a 0.13230472,0.13230472 0 0 0 -0.132809,0.13281 v 12.14448 a 0.13230472,0.13230472 0 0 0 0.132809,0.13281 h 12.144478 a 0.13230472,0.13230472 0 0 0 0.13074,-0.13281 V 201.1035 a 0.13230472,0.13230472 0 0 0 -0.13074,-0.13281 z m 13.263788,0 a 0.13230472,0.13230472 0 0 0 -0.13074,0.13281 v 12.14448 a 0.13230472,0.13230472 0 0 0 0.13074,0.13281 h 12.14448 a 0.13230472,0.13230472 0 0 0 0.13281,-0.13281 V 201.1035 a 0.13230472,0.13230472 0 0 0 -0.13281,-0.13281 z m 13.26534,0 a 0.13230472,0.13230472 0 0 0 -0.13281,0.13281 v 12.14448 a 0.13230472,0.13230472 0 0 0 0.13281,0.13281 h 12.14448 a 0.13230472,0.13230472 0 0 0 0.13126,-0.13281 V 201.1035 a 0.13230472,0.13230472 0 0 0 -0.13126,-0.13281 z"
     transform="translate(-75.758652,-161.50437)" />
</svg>