<?xml version="1.0" encoding="UTF-8" standalone="no"?>
<!-- Created with Inkscape (http://www.inkscape.org/) -->

<svg
   width="138.37708mm"
   height="68.264618mm"
   viewBox="0 0 138.37708 68.264618"
   version="1.1"
   id="svg1"
   xml:space="preserve"
   xmlns="http://www.w3.org/2000/svg"
   xmlns:svg="http://www.w3.org/2000/svg"><defs
     id="defs1" /><g
     id="layer1"
     transform="translate(-44.449989,-65.352071)"><rect
       style="fill:#000000;fill-opacity:1;fill-rule:evenodd;stroke:none;stroke-width:0.264583;stroke-linejoin:round;stroke-opacity:1;paint-order:stroke fill markers"
       id="rect5"
       width="138.37708"
       height="68.264618"
       x="44.449997"
       y="65.352074" /><rect
       style="fill:#ff0000;fill-opacity:1;fill-rule:evenodd;stroke:#000000;stroke-width:0.264583;stroke-linejoin:round;paint-order:stroke fill markers"
       id="rect1"
       width="12.144364"
       height="12.144364"
       x="94.30159"
       y="66.560455" /><rect
       style="fill:#ff0000;fill-opacity:1;fill-rule:evenodd;stroke:#000000;stroke-width:0.264583;stroke-linejoin:round;paint-order:stroke fill markers"
       id="rect1-2"
       width="12.144364"
       height="12.144364"
       x="120.83113"
       y="66.560455" /><rect
       style="fill:#ff0000;fill-opacity:1;fill-rule:evenodd;stroke:#000000;stroke-width:0.264583;stroke-linejoin:round;paint-order:stroke fill markers"
       id="rect1-9"
       width="12.144364"
       height="12.144364"
       x="107.56636"
       y="79.986328" /><rect
       style="fill:#ff0000;fill-opacity:1;fill-rule:evenodd;stroke:#000000;stroke-width:0.264583;stroke-linejoin:round;paint-order:stroke fill markers"
       id="rect1-97"
       width="12.144364"
       height="12.144364"
       x="120.83113"
       y="79.986328" /><rect
       style="fill:#ff0000;fill-opacity:1;fill-rule:evenodd;stroke:#000000;stroke-width:0.264583;stroke-linejoin:round;paint-order:stroke fill markers"
       id="rect1-6"
       width="12.144364"
       height="12.144364"
       x="120.83113"
       y="93.412201" /><rect
       style="fill:#ff0000;fill-opacity:1;fill-rule:evenodd;stroke:#000000;stroke-width:0.264583;stroke-linejoin:round;paint-order:stroke fill markers"
       id="rect1-7"
       width="12.144364"
       height="12.144364"
       x="107.56636"
       y="93.412201" /><rect
       style="fill:#ff0000;fill-opacity:1;fill-rule:evenodd;stroke:#000000;stroke-width:0.264583;stroke-linejoin:round;paint-order:stroke fill markers"
       id="rect1-91"
       width="12.144364"
       height="12.144364"
       x="94.30159"
       y="93.412201" /><path
       style="fill:#fffdff;fill-opacity:1;stroke:none;stroke-width:0.264583px;stroke-linecap:butt;stroke-linejoin:miter;stroke-opacity:1"
       d="m 45.774911,110.11668 19.033954,0.11678 v 4.67091 H 50.283593 v 10.04245 h 14.525272 v 4.67091 l -19.033954,-0.11677 z"
       id="path1" /><path
       style="fill:#fffdff;fill-opacity:1;stroke:none;stroke-width:0.264583px;stroke-linecap:butt;stroke-linejoin:miter;stroke-opacity:1"
       d="m 140.7182,110.11668 19.03396,0.11678 v 4.67091 h -14.52528 v 10.04245 h 14.52528 v 4.67091 l -19.03396,-0.11677 z"
       id="path1-3" /><path
       id="path2"
       style="fill:#fffdff;fill-opacity:1;stroke:none;stroke-width:0.264583px;stroke-linecap:butt;stroke-linejoin:miter;stroke-opacity:1"
       d="m 67.71318,110.11664 v 19.50114 h 4.263305 v -7.7339 h 10.220048 v 7.7339 h 4.38888 v -19.50114 z m 4.200777,4.43126 h 10.219531 l 0.06305,3.13521 -10.345105,-0.0631 z" /><path
       id="path2-8"
       style="fill:#fffdff;fill-opacity:1;stroke:none;stroke-width:0.264583px;stroke-linecap:butt;stroke-linejoin:miter;stroke-opacity:1"
       d="m 89.740146,110.11664 v 19.50114 h 4.263305 v -7.58639 h 14.608869 l 6e-5,-11.91475 z m 4.200777,4.43126 h 10.219527 l 0.0631,3.13521 -10.345101,-0.0631 z" /><path
       id="path2-8-6"
       style="fill:#fffdff;fill-opacity:1;stroke:none;stroke-width:0.264583px;stroke-linecap:butt;stroke-linejoin:miter;stroke-opacity:1"
       d="m 111.26272,110.11664 v 19.50114 h 4.26331 v -7.58639 h 14.60887 l 6e-5,-11.91475 z m 4.20078,4.43126 h 10.21953 l 0.0631,3.13521 -10.34511,-0.0631 z" /><rect
       style="fill:#fffdff;fill-opacity:1;fill-rule:evenodd;stroke:none;stroke-width:0.264583;stroke-linejoin:round;paint-order:stroke fill markers"
       id="rect3"
       width="4.1757379"
       height="4.2007308"
       x="125.95922"
       y="125.41705" /><rect
       style="fill:#fffdff;fill-opacity:1;fill-rule:evenodd;stroke:none;stroke-width:0.264583;stroke-linejoin:round;paint-order:stroke fill markers"
       id="rect4"
       width="4.4504676"
       height="19.501051"
       x="133.10779"
       y="110.11668" /><path
       style="fill:#ffffff;fill-opacity:1;stroke:none;stroke-width:0.264583px;stroke-linecap:butt;stroke-linejoin:miter;stroke-opacity:1"
       d="m 181.0703,110.43563 v 4.50544 h -14.33013 v 3.07218 h 14.33013 v 4.07533 h -14.33013 v 3.13488 h 14.33013 v 4.07533 h -18.55845 v -18.86316 z"
       id="path4" /></g></svg>
